<?xml version="1.0" encoding="UTF-8"?>
<svg id="Livello_1" xmlns="http://www.w3.org/2000/svg" version="1.1" viewBox="0 0 24 24">
  <!-- Generator: Adobe Illustrator 29.5.1, SVG Export Plug-In . SVG Version: 2.1.0 Build 141)  -->
  <defs>
    <style>
      .st0 {
        fill: #fff;
      }
    </style>
  </defs>
  <path class="st0" d="M6.4,19c-.46.55-1.27.52-1.62.1-.33-.38-.28-1.09.22-1.5,1.87-1.87,3.73-3.73,5.6-5.6l-5.6-5.6c-.52-.43-.51-1.2-.09-1.57.39-.35,1.09-.31,1.49.17,1.87,1.87,3.73,3.73,5.6,5.6l5.6-5.6c.45-.54,1.25-.51,1.61-.09.33.39.29,1.09-.21,1.49-1.87,1.87-3.73,3.73-5.6,5.6l5.6,5.6c.54.41.57,1.17.19,1.57-.39.4-1.17.38-1.59-.17l-5.6-5.6-5.6,5.6Z"/>
</svg>