<?xml version="1.0" encoding="UTF-8"?>
<svg id="Livello_1" xmlns="http://www.w3.org/2000/svg" version="1.1" viewBox="0 0 468.04 139.18">
  <!-- Generator: Adobe Illustrator 29.5.1, SVG Export Plug-In . SVG Version: 2.1.0 Build 141)  -->
  <defs>
    <style>
      .st0 {
        fill: #fff;
      }
    </style>
  </defs>
  <path class="st0" d="M32.24,101.38c-4.44-2.67-7.87-6.51-10.28-11.55-2.41-5.03-3.62-11.06-3.62-18.08s1.31-13.3,3.93-18.34c2.62-5.03,6.26-8.86,10.91-11.49,4.65-2.62,10.03-3.93,16.12-3.93,5.25,0,9.92,1.1,14.02,3.3s7.28,5.5,9.52,9.9c2.24,4.4,3.15,9.86,2.73,16.37l-14.59.38c-.08-3.13-.68-5.63-1.78-7.49-1.1-1.86-2.54-3.15-4.31-3.87-1.78-.72-3.81-1.08-6.09-1.08-3.13,0-5.84.72-8.12,2.16s-4.02,3.36-5.2,5.77c-1.19,2.41-1.78,5.14-1.78,8.19,0,3.47.63,6.43,1.9,8.88,1.27,2.46,3.05,4.29,5.33,5.52,2.28,1.23,4.91,1.84,7.87,1.84,2.11,0,4.02-.27,5.71-.83,1.69-.55,3.15-1.4,4.38-2.54s2.18-2.6,2.86-4.38l13.45,4.19c-.76,4.4-2.35,8.19-4.76,11.36s-5.5,5.58-9.26,7.23c-3.77,1.65-8.23,2.48-13.39,2.48-5.92,0-11.1-1.33-15.55-4h0Z"/>
  <path class="st0" d="M84.59,103.47V13.88h16.62v89.6h-16.62Z"/>
  <path class="st0" d="M115.93,101.19c-3.47-2.79-5.25-6.94-5.33-12.44-.09-5.24,1.61-9.39,5.08-12.44s8.46-5.16,14.98-6.35c6.51-1.18,14.8-1.73,24.87-1.65l-.25,5.96c-9.31,0-16.29.59-20.94,1.78s-6.98,3.26-6.98,6.22c0,2.12.84,3.74,2.54,4.89,1.69,1.14,4.02,1.71,6.98,1.71,3.21,0,6.09-.61,8.63-1.84,2.54-1.23,4.55-3.15,6.03-5.77,1.48-2.62,2.22-5.88,2.22-9.77v-5.2c0-3.72-1.06-6.49-3.17-8.31-2.12-1.82-5.29-2.73-9.52-2.73-2.79,0-5.16.28-7.11.83-1.95.55-3.53,1.65-4.76,3.3-1.23,1.65-1.84,4.04-1.84,7.17l-13.33-.25c-.68-5.58-.02-10.51,1.97-14.78,1.99-4.27,5.2-7.59,9.64-9.96s10-3.55,16.69-3.55c8.63,0,15.36,2.14,20.18,6.41s7.23,10.89,7.23,19.86v17.13c0,1.95.19,3.38.57,4.31s1.08,1.4,2.09,1.4c.68,0,1.35-.06,2.03-.19.68-.13,1.27-.32,1.78-.57v16.75l-1.27.51c-1.44.59-2.94,1.04-4.5,1.33-1.57.3-3.15.44-4.76.44-3.13,0-5.44-.68-6.92-2.03s-2.41-3.7-2.79-7.04c-.38-3.34-.23-8.27.44-14.78h-1.27c-1.52,7.87-4.5,13.81-8.95,17.83-4.44,4.02-10.13,6.03-17.07,6.03-5.33,0-9.73-1.4-13.2-4.19v-.02Z"/>
  <path class="st0" d="M185.86,102.58c-1.78-1.78-2.67-4.36-2.67-7.74s.89-5.82,2.67-7.55,4.31-2.6,7.61-2.6,5.82.87,7.55,2.6c1.73,1.74,2.6,4.25,2.6,7.55,0,3.47-.87,6.07-2.6,7.8-1.74,1.73-4.25,2.6-7.55,2.6s-5.84-.89-7.61-2.67h0Z"/>
  <path class="st0" d="M214.28,39.89h16.5l-1.52,19.54h.76c.93-3.89,2.39-7.44,4.38-10.66,1.99-3.21,4.48-5.82,7.49-7.8,3-1.99,6.37-2.98,10.09-2.98s6.92.76,9.33,2.28,4.12,3.85,5.14,6.98c1.02,3.13,1.27,7.19.76,12.18h.89c1.52-5.08,3.36-9.2,5.52-12.37,2.16-3.17,4.63-5.48,7.42-6.92,2.79-1.44,5.96-2.16,9.52-2.16,4.65,0,8.29,1.06,10.91,3.17,2.62,2.12,4.44,5.06,5.46,8.82,1.02,3.77,1.52,8.52,1.52,14.28v39.21h-16.62v-35.15c0-2.88-.34-5.2-1.02-6.98s-1.69-3.07-3.04-3.87c-1.36-.8-3-1.21-4.95-1.21-2.37,0-4.53.68-6.47,2.03-1.95,1.35-3.53,3.36-4.76,6.03-1.23,2.66-1.88,5.82-1.97,9.45v29.7h-16.5v-34.77c0-4.31-.76-7.47-2.28-9.45-1.52-1.99-3.77-2.98-6.73-2.98-2.29,0-4.46.74-6.54,2.22-2.07,1.48-3.72,3.6-4.95,6.35s-1.84,5.9-1.84,9.45v29.19h-16.5v-63.58h0Z"/>
  <path class="st0" d="M363.27,103.47v-33c0-4.65-.95-8.19-2.86-10.6-1.9-2.41-4.84-3.62-8.82-3.62-2.96,0-5.61.78-7.93,2.35-2.33,1.57-4.15,3.77-5.46,6.6-1.31,2.84-1.97,6.11-1.97,9.83v28.43h-16.5v-63.58h16.5l-1.65,19.54h.76c1.52-5.33,3.53-9.58,6.03-12.75s5.33-5.41,8.5-6.73c3.17-1.31,6.66-1.97,10.47-1.97,4.91,0,8.8,1.1,11.68,3.3s4.91,5.27,6.09,9.2,1.78,8.74,1.78,14.4v38.58h-16.62v.02Z"/>
  <path class="st0" d="M404.45,121.94c-4.61-2.24-7.72-5.5-9.33-9.77-1.61-4.27-1.57-9.37.13-15.29h-8c-.93-4.23-.47-8.16,1.4-11.8,1.86-3.64,4.76-6.43,8.69-8.38s8.4-2.71,13.39-2.28l5.33,5.33c-3.72,0-6.71.38-8.95,1.14-2.24.76-3.83,1.69-4.76,2.79-.93,1.1-1.4,2.28-1.4,3.55,2.28,0,4,.02,5.14.06s2.86.06,5.14.06c9.05-.25,16.39.19,22.02,1.33,5.62,1.14,9.77,3.05,12.44,5.71s4,6.24,4,10.72c0,3.81-1.21,7.23-3.62,10.28s-5.69,5.46-9.83,7.23c-4.15,1.78-8.76,2.67-13.83,2.67-7.36,0-13.35-1.12-17.96-3.36h0ZM403.06,76.82c-4.19-1.95-7.38-4.52-9.58-7.74-2.2-3.21-3.3-6.68-3.3-10.41,0-6.43,2.24-11.49,6.73-15.17,4.48-3.68,11.21-5.52,20.18-5.52,6.43,0,11.76.83,15.99,2.47,4.23,1.65,7.38,4,9.45,7.04,2.07,3.05,3.11,6.77,3.11,11.17,0,6.6-2.46,11.76-7.36,15.48-4.91,3.72-11.76,5.58-20.56,5.58-5.58,0-10.47-.97-14.66-2.92v.02ZM427.55,106.77c2.58-1.27,3.87-2.96,3.87-5.08,0-1.61-.61-2.73-1.84-3.36s-3.13-1.04-5.71-1.21-6.88-.3-12.88-.38h-8c-.42,2.62-.34,4.8.25,6.54.59,1.73,1.99,3.07,4.19,4s5.33,1.4,9.39,1.4c4.57,0,8.14-.63,10.72-1.9h0ZM424.31,68c1.78-.8,3.11-1.86,4-3.17.89-1.31,1.33-2.77,1.33-4.38,0-1.44-.44-2.77-1.33-4-.89-1.23-2.22-2.2-4-2.92s-3.93-1.08-6.47-1.08c-3.81,0-6.73.76-8.76,2.28s-3.05,3.43-3.05,5.71c0,1.61.42,3.07,1.27,4.38.84,1.31,2.16,2.37,3.93,3.17,1.78.8,3.93,1.21,6.47,1.21s4.82-.4,6.6-1.21h.01ZM434.85,44.71c-1.61-2.28-2.88-4.59-3.81-6.92-.93-2.33-1.4-4.55-1.4-6.66,0-2.62.83-4.91,2.47-6.85,1.65-1.95,3.87-3.21,6.66-3.81,2.79-.59,5.75-.21,8.88,1.14l1.27,14.34c-1.52-.59-3.05-.72-4.57-.38-1.52.34-2.77,1.02-3.74,2.03-.97,1.02-1.46,2.33-1.46,3.93,0,.76.06,1.44.19,2.03s.27,1.19.44,1.78.27,1,.32,1.21c.04.21.15.61.32,1.21l-4.7-1.65-.89-1.4h.02Z"/>
</svg>