<?xml version="1.0" encoding="UTF-8"?>
<svg id="Layer_1" xmlns="http://www.w3.org/2000/svg" version="1.1" viewBox="0 0 512 512">
  <!-- Generator: Adobe Illustrator 29.5.1, SVG Export Plug-In . SVG Version: 2.1.0 Build 141)  -->
  <defs>
    <style>
      .st0 {
        fill: #fff;
        fill-rule: evenodd;
      }
    </style>
  </defs>
  <g id="Assets">
    <g id="Artboard">
      <path class="st0" d="M504.7,469.2l-146.5-146.5c26.7-34,42.6-76.9,42.6-123.4C400.8,88.8,310.9-1.1,200.4-1.1S0,88.8,0,199.3s89.9,200.4,200.4,200.4c46,0,88.4-15.6,122.2-41.7l146.6,146.6c4.9,4.9,11.3,7.3,17.7,7.3s12.8-2.4,17.7-7.3c9.8-9.7,9.8-25.6.1-35.4ZM50.1,199.4c0-82.9,67.4-150.3,150.3-150.3s150.3,67.4,150.3,150.3-67.4,150.3-150.3,150.3c-82.9,0-150.3-67.4-150.3-150.3Z"/>
    </g>
  </g>
</svg>